# xmcd CD database file
#
# Track frame offsets:
#	150
#	15062
#	30957
#	47662
#	62597
#	73472
#	90035
#	106282
#	119040
#	130875
#
# Disc length: 1892 seconds
#
# Revision: 3
# Processed by: cddbd v1.4PL0 Copyright (c) Steve Scherf et al.
# Submitted via: CDex 1.50
#
DISCID=7707620a
DTITLE=Ricky Skaggs - Don't Cheat In Our Hometown
DYEAR=1983
DGENRE=Country
TTITLE0=Don't Cheat In Our Hometown
TTITLE1=Honey (Open That Door)
TTITLE2=Wound Time Can't Erase
TTITLE3=A Vision Of Mother
TTITLE4=Uncle Pen
TTITLE5=I'm Head Over Heals In Love
TTITLE6=Don't Step Over An Old Love
TTITLE7=She's More To Be Pittied
TTITLE8=Keep A Memory
TTITLE9=Children Go
EXTD=YEAR: 1983
EXTT0=
EXTT1=
EXTT2=
EXTT3=
EXTT4=
EXTT5=
EXTT6=
EXTT7=
EXTT8=
EXTT9=
PLAYORDER=
